<svg xmlns="http://www.w3.org/2000/svg" width="512" height="512" viewBox="0 0 512 512">
<g>
<path d="M 316.83 222.52 C285.30,235.04 258.82,245.63 257.98,246.05 C256.99,246.55 235.72,238.56 197.24,223.24 C164.66,210.27 138.21,199.46 138.45,199.22 C138.69,198.97 154.48,192.51 173.53,184.85 L 208.16 170.92 L 224.84 153.50 L 228.86 157.39 L 232.87 161.28 L 244.52 156.52 L 256.16 151.75 L 272.38 158.10 L 277.23 153.25 L 282.08 148.40 L 271.04 143.97 C264.97,141.53 260.00,139.06 260.00,138.47 C260.00,136.86 300.88,87.00 302.19,87.00 C303.14,87.00 315.90,91.84 346.50,103.79 C359.15,108.73 384.80,118.73 403.50,126.01 C422.20,133.28 438.06,139.69 438.75,140.24 C439.44,140.79 440.00,141.91 440.00,142.71 C440.00,144.73 400.99,195.00 399.43,195.00 C398.73,195.00 382.52,188.70 363.39,181.00 C344.27,173.30 328.12,167.00 327.52,167.00 C326.91,167.00 324.47,168.98 322.09,171.40 C318.15,175.43 317.93,175.89 319.64,176.79 C320.66,177.33 332.98,182.36 347.00,187.97 C361.02,193.58 372.87,198.53 373.33,198.97 C373.79,199.40 348.36,210.00 316.83,222.52 ZM 182.93 167.55 C145.37,182.65 113.93,194.99 113.07,194.99 C111.67,194.97 103.74,185.15 79.25,153.16 C75.26,147.95 72.01,143.42 72.02,143.09 C72.07,140.94 78.27,138.20 118.55,122.48 C143.27,112.83 173.74,100.90 186.25,95.97 C198.76,91.04 209.41,87.00 209.91,87.00 C210.41,87.00 217.95,95.62 226.66,106.16 C235.37,116.70 244.23,127.36 246.35,129.85 C250.43,134.63 252.68,138.65 251.78,139.55 C251.48,139.85 220.50,152.45 182.93,167.55 ZM 230.26 206.22 C241.94,217.61 251.82,226.95 252.20,226.97 C253.06,227.01 335.35,142.28 335.87,140.82 C336.31,139.57 322.04,125.00 320.37,125.00 C319.73,125.00 304.24,140.52 285.96,159.50 C267.67,178.48 252.38,194.00 251.98,194.00 C251.58,194.00 250.68,193.32 249.99,192.49 C249.30,191.66 243.35,185.94 236.77,179.78 L 224.79 168.58 L 216.91 177.04 L 209.02 185.50 Z" fill="rgb(25,46,104)"/>
<path d="M 250.00 351.87 C250.00,392.09 249.66,424.97 249.25,424.94 C248.60,424.88 210.00,408.81 189.50,400.06 C185.65,398.42 168.32,391.19 151.00,384.01 C133.68,376.82 118.99,370.27 118.37,369.44 C117.07,367.72 116.56,302.33 117.78,292.84 L 118.50 287.19 L 142.00 296.97 C204.94,323.17 214.42,326.98 215.01,326.27 C215.37,325.84 222.56,316.05 231.00,304.50 C239.44,292.95 247.17,282.43 248.17,281.12 C249.95,278.80 250.00,280.82 250.00,351.87 ZM 296.18 411.10 C277.85,418.74 262.66,425.00 262.42,425.00 C262.17,425.00 261.99,392.10 262.01,351.89 L 262.05 278.78 L 265.34 283.14 C267.16,285.54 274.87,296.05 282.49,306.50 C290.10,316.95 296.63,325.85 296.99,326.28 C297.36,326.70 313.82,320.34 333.58,312.14 C353.33,303.94 375.00,294.96 381.73,292.18 L 393.96 287.13 L 394.23 327.72 C394.40,353.66 394.14,368.78 393.50,369.61 C392.95,370.33 378.33,376.84 361.00,384.06 C343.67,391.28 314.51,403.45 296.18,411.10 ZM 231.00 285.93 C219.92,301.27 210.85,312.90 210.00,312.86 C209.18,312.83 198.60,308.63 186.50,303.54 C174.40,298.44 146.27,286.74 124.00,277.54 C75.74,257.59 73.00,256.39 73.00,255.15 C73.00,253.66 111.84,202.00 112.96,202.00 C113.88,202.00 191.33,232.70 232.50,249.38 C242.40,253.39 250.50,257.18 250.50,257.80 C250.50,258.42 241.73,271.08 231.00,285.93 ZM 322.12 304.89 C311.46,309.35 302.23,312.97 301.62,312.94 C300.68,312.90 290.99,299.88 264.82,263.52 C262.79,260.71 261.44,257.91 261.82,257.30 C262.78,255.75 398.00,201.79 399.50,202.36 C400.58,202.78 432.71,245.05 437.46,252.30 C438.61,254.06 438.95,255.45 438.35,256.05 C437.56,256.84 393.00,275.63 352.00,292.47 C346.23,294.84 332.78,300.43 322.12,304.89 Z" fill="rgb(35,102,219)"/>
<path d="M 0.00 256.00 L 0.00 0.00 L 256.00 0.00 L 512.00 0.00 L 512.00 256.00 L 512.00 512.00 L 256.00 512.00 L 0.00 512.00 L 0.00 256.00 ZM 250.00 351.87 C250.00,280.82 249.95,278.80 248.17,281.12 C247.17,282.43 239.44,292.95 231.00,304.50 C222.56,316.05 215.37,325.84 215.01,326.27 C214.42,326.98 204.94,323.17 142.00,296.97 L 118.50 287.19 L 117.78 292.84 C116.56,302.33 117.07,367.72 118.37,369.44 C118.99,370.27 133.68,376.82 151.00,384.01 C168.32,391.19 185.65,398.42 189.50,400.06 C210.00,408.81 248.60,424.88 249.25,424.94 C249.66,424.97 250.00,392.09 250.00,351.87 ZM 296.18 411.10 C314.51,403.45 343.67,391.28 361.00,384.06 C378.33,376.84 392.95,370.33 393.50,369.61 C394.14,368.78 394.40,353.66 394.23,327.72 L 393.96 287.13 L 381.73 292.18 C375.00,294.96 353.33,303.94 333.58,312.14 C313.82,320.34 297.36,326.70 296.99,326.28 C296.63,325.85 290.10,316.95 282.49,306.50 C274.87,296.05 267.16,285.54 265.34,283.14 L 262.05 278.78 L 262.01 351.89 C261.99,392.10 262.17,425.00 262.42,425.00 C262.66,425.00 277.85,418.74 296.18,411.10 ZM 231.00 285.93 C241.73,271.08 250.50,258.42 250.50,257.80 C250.50,257.18 242.40,253.39 232.50,249.38 C191.33,232.70 113.88,202.00 112.96,202.00 C111.84,202.00 73.00,253.66 73.00,255.15 C73.00,256.39 75.74,257.59 124.00,277.54 C146.27,286.74 174.40,298.44 186.50,303.54 C198.60,308.63 209.18,312.83 210.00,312.86 C210.85,312.90 219.92,301.27 231.00,285.93 ZM 322.12 304.89 C332.78,300.43 346.23,294.84 352.00,292.47 C393.00,275.63 437.56,256.84 438.35,256.05 C438.95,255.45 438.61,254.06 437.46,252.30 C432.71,245.05 400.58,202.78 399.50,202.36 C398.00,201.79 262.78,255.75 261.82,257.30 C261.44,257.91 262.79,260.71 264.82,263.52 C290.99,299.88 300.68,312.90 301.62,312.94 C302.23,312.97 311.46,309.35 322.12,304.89 ZM 316.83 222.52 C348.36,210.00 373.79,199.40 373.33,198.97 C372.87,198.53 361.02,193.58 347.00,187.97 C332.98,182.36 320.66,177.33 319.64,176.79 C317.93,175.89 318.15,175.43 322.09,171.40 C324.47,168.98 326.91,167.00 327.52,167.00 C328.12,167.00 344.27,173.30 363.39,181.00 C382.52,188.70 398.73,195.00 399.43,195.00 C400.99,195.00 440.00,144.73 440.00,142.71 C440.00,141.91 439.44,140.79 438.75,140.24 C438.06,139.69 422.20,133.28 403.50,126.01 C384.80,118.73 359.15,108.73 346.50,103.79 C315.90,91.84 303.14,87.00 302.19,87.00 C300.88,87.00 260.00,136.86 260.00,138.47 C260.00,139.06 264.97,141.53 271.04,143.97 L 282.08 148.40 L 277.23 153.25 L 272.38 158.10 L 264.27 154.92 L 256.16 151.75 L 244.52 156.52 L 232.87 161.28 L 228.86 157.39 L 224.84 153.50 L 216.50 162.21 L 208.16 170.92 L 173.53 184.85 C154.48,192.51 138.69,198.97 138.45,199.22 C138.21,199.46 164.66,210.27 197.24,223.24 C235.72,238.56 256.99,246.55 257.98,246.05 C258.82,245.63 285.30,235.04 316.83,222.52 ZM 182.93 167.55 C220.50,152.45 251.48,139.85 251.78,139.55 C252.68,138.65 250.43,134.63 246.35,129.85 C244.23,127.36 235.37,116.70 226.66,106.16 C217.95,95.62 210.41,87.00 209.91,87.00 C209.41,87.00 198.76,91.04 186.25,95.97 C173.74,100.90 143.27,112.83 118.55,122.48 C78.27,138.20 72.07,140.94 72.02,143.09 C72.01,143.42 75.26,147.95 79.25,153.16 C103.74,185.15 111.67,194.97 113.07,194.99 C113.93,194.99 145.37,182.65 182.93,167.55 ZM 230.26 206.22 L 209.02 185.50 L 216.91 177.04 L 224.79 168.58 L 236.77 179.78 C243.35,185.94 249.30,191.66 249.99,192.49 C250.68,193.32 251.58,194.00 251.98,194.00 C252.38,194.00 267.67,178.48 285.96,159.50 C304.24,140.52 319.73,125.00 320.37,125.00 C322.04,125.00 336.31,139.57 335.87,140.82 C335.35,142.28 253.06,227.01 252.20,226.97 C251.82,226.95 241.94,217.61 230.26,206.22 Z" fill="rgb(253,254,254)"/>
</g>
</svg>